<?xml version="1.0" standalone="no"?>
<!DOCTYPE svg PUBLIC "-//W3C//DTD SVG 20010904//EN"
 "http://www.w3.org/TR/2001/REC-SVG-20010904/DTD/svg10.dtd">
<svg version="1.0" xmlns="http://www.w3.org/2000/svg"
 width="255.000000pt" height="100.000000pt" viewBox="0 0 255.000000 100.000000"
 preserveAspectRatio="xMidYMid meet">

<g transform="translate(0.000000,100.000000) scale(0.100000,-0.100000)"
fill="#000000" stroke="none">
<path d="M510 918 c-25 -5 -50 -15 -56 -21 -6 -7 -21 -86 -33 -177 -12 -91
-24 -173 -26 -182 -2 -10 0 -18 3 -18 4 0 65 84 137 185 71 102 131 185 133
185 5 0 -16 -36 -121 -215 -55 -93 -102 -174 -105 -179 -7 -12 -9 -13 215 131
105 67 195 123 199 123 3 0 -72 -59 -167 -131 -96 -72 -182 -139 -192 -149
-16 -15 6 -13 179 16 109 18 200 31 202 29 5 -4 -14 -9 -222 -61 -124 -31
-145 -39 -125 -47 44 -16 257 -2 326 22 114 41 202 124 217 206 22 116 -98
238 -276 280 -70 16 -219 18 -288 3z"/>
<path d="M370 864 c-56 -32 -90 -63 -90 -83 0 -35 64 -252 70 -239 4 7 22 81
39 163 18 83 34 158 37 168 7 23 -3 21 -56 -9z"/>
<path d="M240 736 c-15 -40 -12 -113 5 -149 19 -39 43 -72 49 -66 6 6 -29 227
-37 235 -3 4 -11 -5 -17 -20z"/>
<path d="M875 335 c-49 -17 -80 -54 -94 -111 -16 -62 -14 -80 12 -109 27 -32
96 -44 150 -25 34 11 87 60 87 81 0 5 -21 9 -47 9 -34 0 -53 -6 -69 -21 -22
-20 -23 -20 -33 -2 -11 22 0 85 19 108 17 21 37 19 43 -5 4 -17 14 -20 56 -20
45 0 51 2 51 21 0 33 -19 60 -55 75 -42 17 -69 17 -120 -1z"/>
<path d="M242 238 c-12 -57 -25 -113 -28 -125 -6 -23 -5 -23 92 -23 81 0 105
4 132 20 17 11 32 23 33 27 0 5 3 20 5 35 3 20 -1 30 -17 39 l-23 12 26 13
c30 16 43 56 28 84 -10 18 -21 20 -118 20 l-107 0 -23 -102z m148 52 c20 -13
2 -44 -29 -48 -23 -4 -27 9 -11 39 12 21 18 23 40 9z m-15 -120 c0 -20 -6 -26
-27 -28 -29 -3 -35 9 -22 43 11 26 49 15 49 -15z"/>
<path d="M526 328 c-7 -21 -46 -218 -46 -228 0 -6 18 -10 39 -10 l40 0 12 58
c14 66 29 90 29 46 0 -16 3 -46 6 -67 l7 -37 61 0 61 0 26 125 26 125 -43 0
-42 0 -13 -65 c-13 -65 -28 -71 -29 -10 -1 68 -7 75 -71 75 -39 0 -61 -4 -63
-12z"/>
</g>
</svg>
