<svg xmlns="http://www.w3.org/2000/svg" viewBox="0 0 12 10" fill="none">
	<path fill-rule="evenodd" clip-rule="evenodd" d="M0 0.75C0 0.335786 0.335786 0 0.75 0H11.25C11.6642 0 12 0.335786 12 0.75C12 1.16421 11.6642 1.5 11.25 1.5H0.75C0.335786 1.5 0 1.16421 0 0.75ZM1 4.75C1 4.33579 1.33579 4 1.75 4H8.25C8.66421 4 9 4.33579 9 4.75C9 5.16421 8.66421 5.5 8.25 5.5H1.75C1.33579 5.5 1 5.16421 1 4.75ZM2.75 8C2.33579 8 2 8.33579 2 8.75C2 9.16421 2.33579 9.5 2.75 9.5H5.25C5.66421 9.5 6 9.16421 6 8.75C6 8.33579 5.66421 8 5.25 8H2.75Z" fill="currentColor" />
</svg>
